<?xml version="1.0" encoding="UTF-8" standalone="no"?>
<svg
   width="104.61578mm"
   height="83.919998mm"
   viewBox="0 0 104.61577 83.919998"
   version="1.1"
   id="svg1050"
   inkscape:version="1.4.3 (0d15f75, 2025-12-25)"
   sodipodi:docname="udl_logo_white - Copy.svg"
   xmlns:inkscape="http://www.inkscape.org/namespaces/inkscape"
   xmlns:sodipodi="http://sodipodi.sourceforge.net/DTD/sodipodi-0.dtd"
   xmlns="http://www.w3.org/2000/svg"
   xmlns:svg="http://www.w3.org/2000/svg"
   xmlns:rdf="http://www.w3.org/1999/02/22-rdf-syntax-ns#"
   xmlns:cc="http://creativecommons.org/ns#"
   xmlns:dc="http://purl.org/dc/elements/1.1/">
  <defs
     id="defs1044">
    <rect
       x="-87.14286"
       y="-95"
       width="1312.1429"
       height="557.14288"
       id="rect2" />
    <rect
       x="417.85715"
       y="73.047394"
       width="372.14285"
       height="148.72951"
       id="rect1" />
    <inkscape:path-effect
       effect="fillet_chamfer"
       id="path-effect1003"
       is_visible="true"
       lpeversion="1"
       satellites_param="F,0,0,1,0,7.4083333,0,1 @ F,0,0,1,0,7.4083333,0,1 @ F,0,0,1,0,7.4083333,0,1 @ F,0,0,1,0,7.4083333,0,1"
       unit="px"
       method="auto"
       mode="F"
       radius="28"
       chamfer_steps="1"
       flexible="false"
       use_knot_distance="true"
       apply_no_radius="true"
       apply_with_radius="true"
       only_selected="false"
       hide_knots="false"
       nodesatellites_param="F,0,0,1,0,7.4083333,0,1 @ F,0,0,1,0,7.4083333,0,1 @ F,0,0,1,0,7.4083333,0,1 @ F,0,0,1,0,7.4083333,0,1" />
    <inkscape:path-effect
       effect="fillet_chamfer"
       id="path-effect1005"
       is_visible="true"
       lpeversion="1"
       satellites_param="F,0,0,1,0,7.4083333,0,1 @ F,0,0,1,0,7.4083333,0,1 @ F,0,0,1,0,7.4083333,0,1 @ F,0,0,1,0,7.4083333,0,1"
       unit="px"
       method="auto"
       mode="F"
       radius="28"
       chamfer_steps="1"
       flexible="false"
       use_knot_distance="true"
       apply_no_radius="true"
       apply_with_radius="true"
       only_selected="false"
       hide_knots="false"
       nodesatellites_param="F,0,0,1,0,7.4083333,0,1 @ F,0,0,1,0,7.4083333,0,1 @ F,0,0,1,0,7.4083333,0,1 @ F,0,0,1,0,7.4083333,0,1" />
    <inkscape:path-effect
       effect="fillet_chamfer"
       id="path-effect1007"
       is_visible="true"
       lpeversion="1"
       satellites_param="F,0,0,1,0,8.4666667,0,1 @ F,0,0,1,0,8.4666667,0,1 @ F,0,0,1,0,8.4666667,0,1 @ F,0,0,1,0,8.4666667,0,1"
       unit="px"
       method="auto"
       mode="F"
       radius="36"
       chamfer_steps="1"
       flexible="false"
       use_knot_distance="true"
       apply_no_radius="true"
       apply_with_radius="true"
       only_selected="false"
       hide_knots="false"
       nodesatellites_param="F,0,0,1,0,8.4666667,0,1 @ F,0,0,1,0,8.4666667,0,1 @ F,0,0,1,0,8.4666667,0,1 @ F,0,0,1,0,8.4666667,0,1" />
    <inkscape:path-effect
       effect="fillet_chamfer"
       id="path-effect1009"
       is_visible="true"
       lpeversion="1"
       satellites_param="F,0,0,1,0,3.175,0,1 @ F,0,0,1,0,3.175,0,1 @ F,0,0,1,0,3.175,0,1"
       unit="px"
       method="auto"
       mode="F"
       radius="9"
       chamfer_steps="1"
       flexible="false"
       use_knot_distance="true"
       apply_no_radius="true"
       apply_with_radius="true"
       only_selected="false"
       hide_knots="false"
       nodesatellites_param="F,0,0,1,0,3.175,0,1 @ F,0,0,1,0,3.175,0,1 @ F,0,0,1,0,3.175,0,1" />
    <inkscape:path-effect
       effect="fillet_chamfer"
       id="path-effect1011"
       is_visible="true"
       lpeversion="1"
       satellites_param="F,0,0,1,0,8.4666667,0,1 @ F,0,0,1,0,8.4666667,0,1 @ F,0,0,1,0,8.4666667,0,1 @ F,0,0,1,0,8.4666667,0,1"
       unit="px"
       method="auto"
       mode="F"
       radius="36"
       chamfer_steps="1"
       flexible="false"
       use_knot_distance="true"
       apply_no_radius="true"
       apply_with_radius="true"
       only_selected="false"
       hide_knots="false"
       nodesatellites_param="F,0,0,1,0,8.4666667,0,1 @ F,0,0,1,0,8.4666667,0,1 @ F,0,0,1,0,8.4666667,0,1 @ F,0,0,1,0,8.4666667,0,1" />
    <inkscape:path-effect
       effect="fillet_chamfer"
       id="path-effect1013"
       is_visible="true"
       lpeversion="1"
       satellites_param="F,0,0,1,0,7.4083333,0,1 @ F,0,0,1,0,7.4083333,0,1 @ F,0,0,1,0,7.4083333,0,1 @ F,0,0,1,0,7.4083333,0,1"
       unit="px"
       method="auto"
       mode="F"
       radius="28"
       chamfer_steps="1"
       flexible="false"
       use_knot_distance="true"
       apply_no_radius="true"
       apply_with_radius="true"
       only_selected="false"
       hide_knots="false"
       nodesatellites_param="F,0,0,1,0,7.4083333,0,1 @ F,0,0,1,0,7.4083333,0,1 @ F,0,0,1,0,7.4083333,0,1 @ F,0,0,1,0,7.4083333,0,1" />
    <inkscape:path-effect
       effect="fillet_chamfer"
       id="path-effect1015"
       is_visible="true"
       lpeversion="1"
       satellites_param="F,0,0,1,0,8.4666667,0,1 @ F,0,0,1,0,8.4666667,0,1 @ F,0,0,1,0,8.4666667,0,1 @ F,0,0,1,0,8.4666667,0,1"
       unit="px"
       method="auto"
       mode="F"
       radius="36"
       chamfer_steps="1"
       flexible="false"
       use_knot_distance="true"
       apply_no_radius="true"
       apply_with_radius="true"
       only_selected="false"
       hide_knots="false"
       nodesatellites_param="F,0,0,1,0,8.4666667,0,1 @ F,0,0,1,0,8.4666667,0,1 @ F,0,0,1,0,8.4666667,0,1 @ F,0,0,1,0,8.4666667,0,1" />
    <inkscape:path-effect
       effect="fillet_chamfer"
       id="path-effect1017"
       is_visible="true"
       lpeversion="1"
       satellites_param="F,0,0,1,0,3.175,0,1 @ F,0,0,1,0,3.175,0,1 @ F,0,0,1,0,3.175,0,1"
       unit="px"
       method="auto"
       mode="F"
       radius="8"
       chamfer_steps="1"
       flexible="false"
       use_knot_distance="true"
       apply_no_radius="true"
       apply_with_radius="true"
       only_selected="false"
       hide_knots="false"
       nodesatellites_param="F,0,0,1,0,3.175,0,1 @ F,0,0,1,0,3.175,0,1 @ F,0,0,1,0,3.175,0,1" />
  </defs>
  <sodipodi:namedview
     id="base"
     pagecolor="#ffffff"
     bordercolor="#666666"
     borderopacity="1.0"
     inkscape:pageopacity="0.0"
     inkscape:pageshadow="2"
     inkscape:zoom="1.4"
     inkscape:cx="527.5"
     inkscape:cy="191.78571"
     inkscape:document-units="mm"
     inkscape:current-layer="svg1050"
     inkscape:document-rotation="0"
     showgrid="false"
     inkscape:window-width="3200"
     inkscape:window-height="1261"
     inkscape:window-x="-9"
     inkscape:window-y="237"
     inkscape:window-maximized="1"
     inkscape:showpageshadow="2"
     inkscape:pagecheckerboard="true"
     inkscape:deskcolor="#d1d1d1" />
  <metadata
     id="metadata1047">
    <rdf:RDF>
      <cc:Work
         rdf:about="">
        <dc:format>image/svg+xml</dc:format>
        <dc:type
           rdf:resource="http://purl.org/dc/dcmitype/StillImage" />
      </cc:Work>
    </rdf:RDF>
  </metadata>
  <g
     inkscape:label="Layer 1"
     inkscape:groupmode="layer"
     id="layer1"
     transform="translate(174.43769,-125.9247)">
    <path
       id="path959"
       d="m -99.57985,178.13447 h 28.523521 a 1.2344125,1.2344125 0 0 1 1.234412,1.23441 v 0.60824 a 1.2344125,1.2344125 0 0 1 -1.234412,1.23442 H -99.57985 a 1.2344125,1.2344125 0 0 1 -1.23441,-1.23442 v -0.60824 a 1.2344125,1.2344125 0 0 1 1.23441,-1.23441 z"
       style="fill:#ffffff;stroke-width:0.252832" />
    <path
       id="path961"
       d="m -83.734803,127.15912 v 28.99303 a 1.2344125,1.2344125 0 0 1 -1.234412,1.23442 h -0.69777 a 1.2344125,1.2344125 0 0 1 -1.234411,-1.23442 v -28.99303 a 1.2344125,1.2344125 0 0 1 1.234411,-1.23441 h 0.69777 a 1.2344125,1.2344125 0 0 1 1.234412,1.23441 z"
       style="fill:#ffffff;stroke-width:0.258419" />
    <path
       id="path963"
       d="m -161.41306,208.43394 v -38.15988 a 1.4107572,1.4107572 0 0 1 1.41076,-1.41075 h 1.78444 a 1.4107572,1.4107572 0 0 1 1.41075,1.41075 v 38.15988 a 1.4107572,1.4107572 0 0 1 -1.41075,1.41076 h -1.78444 a 1.4107572,1.4107572 0 0 1 -1.41076,-1.41076 z"
       style="fill:#ffffff;stroke-width:0.355701" />
    <path
       id="path965"
       inkscape:transform-center-x="0.019706805"
       inkscape:transform-center-y="2.6562685"
       d="m -86.353827,178.78745 -13.391853,-21.1822 a 1.1301154,1.2335485 89.999993 0 1 1.065705,-1.69654 l 26.719201,-0.0341 a 1.1301154,1.2335485 89.999993 0 1 1.070862,1.69381 l -13.327347,21.21632 a 1.1301154,1.2335485 89.999993 0 1 -2.136568,0.003 z"
       style="fill:#ffffff;stroke-width:0.170419" />
    <path
       id="path967"
       d="m -127.97931,208.43394 v -38.15988 a 1.4107572,1.4107572 0 0 1 1.41076,-1.41075 h 1.78444 a 1.4107572,1.4107572 0 0 1 1.41075,1.41075 v 38.15988 a 1.4107572,1.4107572 0 0 1 -1.41075,1.41076 h -1.78444 a 1.4107572,1.4107572 0 0 1 -1.41076,-1.41076 z"
       style="fill:#ffffff;stroke-width:0.355701" />
    <path
       id="path969"
       d="m -83.734803,180.963 v 27.64728 a 1.2344125,1.2344125 0 0 1 -1.234412,1.23442 h -0.69777 a 1.2344125,1.2344125 0 0 1 -1.234411,-1.23442 V 180.963 a 1.2344125,1.2344125 0 0 1 1.234411,-1.23441 h 0.69777 a 1.2344125,1.2344125 0 0 1 1.234412,1.23441 z"
       style="fill:#ffffff;stroke-width:0.252832" />
    <path
       id="path971"
       d="m -144.70762,165.49533 v -38.15988 a 1.4107572,1.4107572 0 0 1 1.41076,-1.41075 h 1.78444 a 1.4107572,1.4107572 0 0 1 1.41076,1.41075 v 38.15988 a 1.4107572,1.4107572 0 0 1 -1.41076,1.41075 h -1.78444 a 1.4107572,1.4107572 0 0 1 -1.41076,-1.41075 z"
       style="fill:#ffffff;stroke-width:0.355701" />
    <path
       id="path973"
       inkscape:transform-center-x="-0.060024196"
       inkscape:transform-center-y="-6.5955219"
       d="m -139.87159,141.02284 29.11209,49.05958 a 2.8111722,2.8929646 89.999975 0 1 -2.50774,4.21544 l -58.27908,-0.0308 a 2.8111722,2.8929646 89.999975 0 1 -2.50301,-4.21807 l 29.16698,-49.02879 a 2.8111722,2.8929646 89.999975 0 1 5.01076,0.003 z"
       style="fill:#ffffff;stroke-width:0.411618" />
    <g
       aria-label="D"
       transform="matrix(0.16903149,0,0,0.1642525,-11.414523,145.96726)"
       id="text977"
       style="font-style:normal;font-variant:normal;font-weight:bold;font-stretch:normal;font-size:66.0884px;line-height:1.25;font-family:Comfortaa;-inkscape-font-specification:'Comfortaa Bold';letter-spacing:0px;word-spacing:0px;fill:#000000;fill-opacity:1;stroke:#ffffff;stroke-width:8.51535;stroke-miterlimit:4;stroke-dasharray:none;stroke-opacity:1">
      <g
         id="path1697"
         style="opacity:1;fill:#000000">
        <path
           style="baseline-shift:baseline;display:inline;overflow:visible;vector-effect:none;fill:#000000;stroke:none;enable-background:accumulate;stop-color:#000000;stop-opacity:1"
           d="m -450.01047,140.48901 q -1.45395,0 -2.44527,-0.99132 -0.99133,-0.99133 -0.99133,-2.44527 V 92.310569 q 0,-1.520033 0.99133,-2.445271 0.99132,-0.991326 2.44527,-0.991326 h 11.962 q 7.46799,0 13.28377,3.30442 5.81578,3.30442 9.05411,9.186288 3.23833,5.81578 3.23833,13.28377 0,7.46799 -3.23833,13.34986 -3.23833,5.88186 -9.05411,9.18628 -5.81578,3.30442 -13.28377,3.30442 z m 11.962,-6.08013 q 5.48534,0 9.78108,-2.51136 4.36184,-2.51136 6.74102,-7.00537 2.44527,-4.5601 2.44527,-10.2437 0,-5.6836 -2.44527,-10.17762 -2.37918,-4.494007 -6.74102,-7.005366 -4.29574,-2.511359 -9.78108,-2.511359 h -8.5254 v 39.454775 z"
           id="path9" />
        <path
           style="baseline-shift:baseline;display:inline;overflow:visible;vector-effect:none;fill:#000000;stroke:none;enable-background:accumulate;stop-color:#000000;stop-opacity:1"
           d="m -450.00977,84.617187 c -1.9124,10e-7 -3.99545,0.832087 -5.39257,2.197266 -1.47686,1.412226 -2.30274,3.580435 -2.30274,5.496094 v 44.742183 c 0,1.93696 0.84147,4.05827 2.23828,5.45508 1.39682,1.39682 3.52009,2.23828 5.45703,2.23828 h 11.96094 c 5.60664,0 10.82896,-1.26973 15.38672,-3.85937 4.52548,-2.5713 8.16586,-6.2645 10.68164,-10.83399 2.52606,-4.58816 3.76563,-9.81022 3.76563,-15.40429 0,-5.59032 -1.23922,-10.79395 -3.77149,-15.345706 -2.51561,-4.565517 -6.15314,-8.256492 -10.67578,-10.826172 -4.55776,-2.589638 -9.78008,-3.859375 -15.38672,-3.859375 z m 7.69336,14.59375 h 4.26758 c 3.00713,10e-7 5.45065,0.653958 7.63281,1.929693 l 0.0117,0.008 0.0117,0.006 c 2.24628,1.2933 3.86736,2.97363 5.10352,5.30859 l 0.0117,0.0215 0.0117,0.0215 c 1.27002,2.33411 1.92773,4.96411 1.92773,8.14258 0,3.17847 -0.65937,5.8416 -1.94141,8.23242 l -0.004,0.01 -0.006,0.01 c -1.23616,2.33496 -2.85724,4.01333 -5.10352,5.30664 l -0.0117,0.008 -0.0117,0.008 c -2.18216,1.27573 -4.62568,1.92773 -7.63281,1.92773 h -4.26758 z m 24.5293,3.224613 0.0234,0.043 c -0.004,-0.008 -0.0114,-0.0135 -0.0156,-0.0215 -0.004,-0.007 -0.004,-0.0148 -0.008,-0.0215 z m 0.0234,24.44922 -0.01,0.0195 c 0.002,-0.004 0.002,-0.008 0.004,-0.0117 0.002,-0.003 0.004,-0.005 0.006,-0.008 z"
           id="path10" />
      </g>
    </g>
    <g
       aria-label="+"
       transform="matrix(0.16903149,0,0,0.1642525,-11.414523,145.96726)"
       id="text981"
       style="font-style:normal;font-variant:normal;font-weight:bold;font-stretch:normal;font-size:96.1289px;line-height:1.25;font-family:Comfortaa;-inkscape-font-specification:'Comfortaa Bold';letter-spacing:0px;word-spacing:0px;fill:#ffffff;fill-opacity:1;stroke:none;stroke-width:3.19344">
      <path
         d="m -386.61402,41.113247 q -2.11484,0 -3.55677,-1.345804 -1.3458,-1.441934 -1.3458,-3.556769 V 23.329401 h -12.88128 q -2.11483,0 -3.55677,-1.441933 -1.3458,-1.441934 -1.3458,-3.55677 0,-2.114835 1.3458,-3.46064 1.44194,-1.441933 3.55677,-1.441933 h 12.88128 V 0.54685219 q 0,-2.01870689 1.44193,-3.46064039 1.53806,-1.4419334 3.46064,-1.4419334 2.11484,0 3.46064,1.4419334 1.44193,1.3458046 1.44193,3.46064039 V 13.428125 h 12.88128 q 2.0187,0 3.46064,1.441933 1.53806,1.441934 1.53806,3.556769 0,2.018707 -1.53806,3.460641 -1.44194,1.441933 -3.46064,1.441933 h -12.88128 v 12.881273 q 0,2.114835 -1.44193,3.556769 -1.3458,1.345804 -3.46064,1.345804 z"
         style="font-style:normal;font-variant:normal;font-weight:bold;font-stretch:normal;font-size:96.1289px;font-family:Comfortaa;-inkscape-font-specification:'Comfortaa Bold';fill:#ffffff;fill-opacity:1;stroke-width:3.19344"
         id="path1691" />
    </g>
    <g
       aria-label="µ"
       transform="matrix(0.16903149,0,0,0.1642525,-11.414523,145.96726)"
       id="text985"
       style="font-style:normal;font-weight:normal;font-size:156.209px;line-height:1.25;font-family:sans-serif;letter-spacing:0px;word-spacing:0px;fill:#000000;fill-opacity:1;stroke:#ffffff;stroke-width:8.51535;stroke-miterlimit:4;stroke-dasharray:none;stroke-opacity:1">
      <g
         id="path1677"
         style="opacity:1;fill:#000000">
        <path
           style="font-style:italic;font-family:Comfortaa;-inkscape-font-specification:'Comfortaa Italic';baseline-shift:baseline;display:inline;overflow:visible;vector-effect:none;fill:#000000;stroke:none;enable-background:accumulate;stop-color:#000000;stop-opacity:1"
           d="m -729.32644,88.873746 q 2.65556,0 4.06144,1.718299 1.40588,1.56209 0.93725,4.217643 l -14.68364,73.418232 q -0.62484,2.65555 -2.65556,4.37385 -2.03071,1.7183 -4.68627,1.7183 -2.65555,0 -4.06143,-1.7183 -1.24967,-1.7183 -0.62484,-4.37385 l 1.24967,-6.24836 q -5.93594,6.24836 -13.74639,9.84116 -7.81045,3.4366 -16.08952,3.4366 -9.06013,0 -15.4647,-3.90522 -6.40456,-3.90523 -9.52874,-10.93463 l -8.90392,44.36335 q -0.46862,2.65556 -2.65555,4.37386 -2.03072,1.71829 -4.68627,1.71829 -2.65555,0 -3.90523,-1.71829 -1.24967,-1.7183 -0.78104,-4.37386 l 22.02547,-109.971132 q 0.46863,-2.655553 2.34313,-4.217643 2.03072,-1.718299 4.68627,-1.718299 2.65556,0 4.06144,1.718299 1.40588,1.56209 0.93725,4.217643 l -8.12287,40.614342 q -1.7183,8.12287 0.62484,14.68364 2.34313,6.40457 7.81045,10.15359 5.62352,3.59281 13.74639,3.59281 11.87189,0 20.7758,-6.40457 9.06012,-6.40457 11.09084,-16.40195 l 9.21633,-46.237862 q 0.46863,-2.655553 2.34313,-4.217643 2.03072,-1.718299 4.68627,-1.718299 z"
           id="path11" />
        <path
           style="font-style:italic;font-family:Comfortaa;-inkscape-font-specification:'Comfortaa Italic';baseline-shift:baseline;display:inline;overflow:visible;vector-effect:none;fill:#000000;stroke:none;enable-background:accumulate;stop-color:#000000;stop-opacity:1"
           d="m -796.49609,84.615234 c -2.68286,0 -5.37112,0.989084 -7.42188,2.71875 -2.01985,1.689035 -3.34532,4.155414 -3.80078,6.736328 l 0.0176,-0.09766 -22.03516,110.019538 -0.008,0.0488 c -0.45229,2.56298 -0.0644,5.42314 1.53125,7.61718 1.67689,2.30571 4.65897,3.47266 7.34766,3.47266 2.66147,0 5.32271,-0.98146 7.36718,-2.68555 2.14828,-1.7118 3.69031,-4.21705 4.16797,-6.92383 l 6.94531,-34.60156 c 1.53792,1.51902 3.19592,2.91871 5.07813,4.06641 5.03164,3.06807 11.02982,4.52929 17.68164,4.52929 6.10849,1e-5 12.08817,-1.28246 17.80273,-3.79687 l 0.0332,-0.0156 0.0312,-0.0137 c 2.31481,-1.06481 4.44959,-2.40742 6.54687,-3.79883 0.2442,1.14304 0.6529,2.2515 1.35352,3.21485 l 0.0703,0.0977 0.0781,0.0957 c 1.76922,2.16239 4.66677,3.27929 7.35546,3.27929 2.6887,0 5.38508,-0.98988 7.4375,-2.72656 2.01507,-1.70505 3.44363,-4.07635 4.04883,-6.64844 l 0.0176,-0.0703 14.70703,-73.535158 0.008,-0.04883 c 0.45819,-2.596382 -0.0674,-5.613571 -1.9082,-7.71875 -1.7745,-2.112568 -4.62619,-3.214844 -7.2832,-3.214844 -2.68286,0 -5.37112,0.989084 -7.42188,2.71875 -2.01985,1.689035 -3.34532,4.155414 -3.80078,6.736328 l -9.19922,46.144524 c -1.14556,5.62045 -4.06834,10.00794 -9.37304,13.75782 l -0.0137,0.01 -0.0137,0.01 c -5.20773,3.74591 -11.14205,5.60351 -18.29101,5.60351 -4.75777,0 -8.43471,-1.02253 -11.39063,-2.89453 -2.90698,-2.01016 -4.88001,-4.55724 -6.1582,-8.04101 -1.2595,-3.5358 -1.48182,-7.55717 -0.4668,-12.35547 l 0.006,-0.0234 8.13672,-40.68359 0.008,-0.04883 c 0.45852,-2.598248 -0.0661,-5.619243 -1.91015,-7.724609 -1.77483,-2.109144 -4.62643,-3.208985 -7.28125,-3.208985 z m 0,8.515625 c 0.85205,0 0.66034,0.02953 0.76562,0.158203 l 0.0644,0.07617 0.0664,0.07422 c -0.0226,-0.02517 0.0692,-0.281233 -0.0918,0.630859 l -8.09375,40.472659 c -1.27466,6.02569 -1.08086,11.78766 0.7793,16.99609 l 0.006,0.0156 0.006,0.0156 c 1.83711,5.02144 5.05686,9.22471 9.40039,12.20313 l 0.0586,0.0391 0.0586,0.0371 c 4.53279,2.89595 9.99413,4.26172 16.03711,4.26172 7.56558,0 14.4962,-1.94338 20.57812,-5.58789 -2.59247,2.10333 -5.33566,3.98759 -8.42578,5.41211 -4.68736,2.05683 -9.42047,3.06445 -14.33789,3.06445 -5.42835,0 -9.74026,-1.14431 -13.24805,-3.2832 -3.56295,-2.17254 -6.09237,-5.06235 -7.85547,-9.0293 l -5.43359,-12.22266 -11.54492,57.52735 -0.01,0.0488 c -0.14274,0.80891 -0.35552,1.18712 -1.09179,1.76562 l -0.0606,0.0488 -0.0606,0.0488 c -0.65519,0.55439 -1.0835,0.71093 -1.93554,0.71093 -0.85205,0 -0.4716,0.0205 -0.46094,0.0352 -0.0706,-0.097 -0.2038,-0.15114 -0.0312,-1.12891 l 22.01562,-109.923825 0.01,-0.04883 c 0.16841,-0.954308 0.40282,-1.292066 0.875,-1.685547 l 0.0117,-0.0098 0.0137,-0.01172 c 0.6552,-0.554397 1.0835,-0.710938 1.93555,-0.710938 z m 67.16992,0 c 0.85205,0 0.66034,0.02953 0.76562,0.158203 l 0.0645,0.07617 0.0664,0.07422 c -0.0226,-0.02517 0.0692,-0.281233 -0.0918,0.630859 l -14.63477,73.181639 -0.002,0.002 c -0.22792,0.96665 -0.56797,1.51228 -1.25977,2.09765 -0.65518,0.55439 -1.08349,0.71094 -1.93555,0.71094 -0.67161,0 -0.57213,-0.0526 -0.60351,-0.12305 -0.0364,-0.0192 -0.12247,0.0498 0.0625,-0.73633 l 0.0156,-0.0703 4.1543,-20.77344 -2.04687,2.15625 c 1.52716,-2.68123 2.74265,-5.52724 3.37109,-8.62109 l 0.002,-0.008 9.22657,-46.291018 0.01,-0.04687 c 0.16841,-0.954308 0.40283,-1.292066 0.875,-1.685547 l 0.0117,-0.0098 0.0137,-0.01172 c 0.6552,-0.554397 1.0835,-0.710938 1.93555,-0.710938 z"
           id="path12" />
      </g>
    </g>
    <g
       aria-label="-"
       transform="matrix(0.19125635,0,0,0.14516561,-11.414523,145.96726)"
       id="text989"
       style="font-style:normal;font-variant:normal;font-weight:bold;font-stretch:normal;font-size:124.014px;line-height:1.25;font-family:Comfortaa;-inkscape-font-specification:'Comfortaa Bold';letter-spacing:0px;word-spacing:0px;fill:#ffffff;fill-opacity:1;stroke:none;stroke-width:5.94897">
      <path
         d="m -355.41089,283.23465 q -2.7283,0 -4.58851,-1.7362 -1.7362,-1.73619 -1.7362,-4.4645 0,-2.72831 1.7362,-4.46451 1.86021,-1.86021 4.58851,-1.86021 h 27.65513 q 2.7283,0 4.4645,1.86021 1.7362,1.7362 1.7362,4.46451 0,2.72831 -1.7362,4.4645 -1.7362,1.7362 -4.4645,1.7362 z"
         style="font-style:normal;font-variant:normal;font-weight:bold;font-stretch:normal;font-size:124.014px;font-family:Comfortaa;-inkscape-font-specification:'Comfortaa Bold';fill:#ffffff;fill-opacity:1;stroke-width:5.94897"
         id="path1694" />
    </g>
    <g
       aria-label="+"
       transform="matrix(0.16903149,0,0,0.1642525,-11.414523,145.96726)"
       id="text993"
       style="font-style:normal;font-variant:normal;font-weight:bold;font-stretch:normal;font-size:96.1289px;line-height:1.25;font-family:Comfortaa;-inkscape-font-specification:'Comfortaa Bold';letter-spacing:0px;word-spacing:0px;fill:#000000;fill-opacity:1;stroke:none;stroke-width:3.19344">
      <path
         d="m -873.82297,280.69162 q -2.11484,0 -3.55677,-1.3458 -1.34581,-1.44193 -1.34581,-3.55677 v -12.88127 h -12.88127 q -2.11484,0 -3.55677,-1.44194 -1.3458,-1.44193 -1.3458,-3.55676 0,-2.11484 1.3458,-3.46065 1.44193,-1.44193 3.55677,-1.44193 h 12.88127 v -12.88127 q 0,-2.01871 1.44194,-3.46064 1.53806,-1.44193 3.46064,-1.44193 2.11483,0 3.46064,1.44193 1.44193,1.3458 1.44193,3.46064 v 12.88127 h 12.88127 q 2.01871,0 3.46064,1.44193 1.53806,1.44194 1.53806,3.55677 0,2.01871 -1.53806,3.46064 -1.44193,1.44194 -3.46064,1.44194 h -12.88127 v 12.88127 q 0,2.11484 -1.44193,3.55677 -1.34581,1.3458 -3.46064,1.3458 z"
         style="font-style:normal;font-variant:normal;font-weight:bold;font-stretch:normal;font-size:96.1289px;font-family:Comfortaa;-inkscape-font-specification:'Comfortaa Bold';fill:#000000;fill-opacity:1;stroke-width:3.19344"
         id="path1680" />
    </g>
    <g
       aria-label="-"
       transform="matrix(0.19125635,0,0,0.14516561,-11.414523,145.96726)"
       id="text997"
       style="font-style:normal;font-variant:normal;font-weight:bold;font-stretch:normal;font-size:124.014px;line-height:1.25;font-family:Comfortaa;-inkscape-font-specification:'Comfortaa Bold';letter-spacing:0px;word-spacing:0px;fill:#000000;fill-opacity:1;stroke:none;stroke-width:5.94897">
      <path
         d="m -611.19308,298.6189 q -2.72831,0 -4.58852,-1.7362 -1.7362,-1.7362 -1.7362,-4.4645 0,-2.72831 1.7362,-4.46451 1.86021,-1.86021 4.58852,-1.86021 h 27.65512 q 2.72831,0 4.4645,1.86021 1.7362,1.7362 1.7362,4.46451 0,2.7283 -1.7362,4.4645 -1.73619,1.7362 -4.4645,1.7362 z"
         style="font-style:normal;font-variant:normal;font-weight:bold;font-stretch:normal;font-size:124.014px;font-family:Comfortaa;-inkscape-font-specification:'Comfortaa Bold';fill:#000000;fill-opacity:1;stroke-width:5.94897"
         id="path1683" />
    </g>
  </g>
</svg>
